<svg width="126" height="24" viewBox="0 0 126 24" fill="none" xmlns="http://www.w3.org/2000/svg"><path d="M125.416 12.0051V8.00771H105.875V3.99743H113.693V0H0V2.65896V3.99743V8.00771V12.0051V16.0026V19.9589V19.9974V23.9563H117.601V19.9589H109.786V16.0026H98.0605V12.0051H125.416Z" fill="url(#paint0_linear)"></path><path d="M16.4726 7.45018H18.6049V19.815H22.2992V4.19006H16.4726V7.45018Z" fill="white"></path><path d="M32.9891 7.91003L30.0912 15.63H29.9988L27.0264 7.91003H23.1831L27.8202 19.815H31.9487L36.8119 7.91003H32.9891Z" fill="white"></path><path d="M57.5466 7.91004L53.6776 12.7578H53.5903V4.19006H50.0296V19.815H53.5903V14.5844H53.6674L57.4773 19.815H61.7624L57.2101 13.6262L61.8909 7.91004H57.5466Z" fill="white"></path><path d="M89.842 7.91003L86.993 15.4861H86.903L83.8767 7.91003H80.0334L84.9557 20.3082L83.3886 24H87.2113L93.6622 7.91003H89.842Z" fill="white"></path><path d="M42.4509 7.50415C38.8773 7.50415 35.9794 10.2325 35.9794 13.8523C35.9794 17.472 38.8773 20.2004 42.4509 20.2004C43.7552 20.2209 45.0345 19.8415 46.1166 19.113C47.1988 18.3845 48.0318 17.3421 48.5035 16.1259H44.65C44.2184 16.7681 43.3141 17.0893 42.4534 17.0893C41.8257 17.1019 41.21 16.9159 40.6943 16.5579C40.1785 16.1999 39.789 15.6882 39.5812 15.0957H48.7913C48.871 14.686 48.9114 14.2696 48.912 13.8523C48.9223 10.2505 46.0244 7.50415 42.4509 7.50415ZM39.5787 12.6088C39.784 12.0148 40.1729 11.5015 40.6893 11.1431C41.2056 10.7847 41.8225 10.5999 42.4509 10.6153C43.9101 10.6153 45.0533 11.386 45.3333 12.6088H39.5787Z" fill="white"></path><path d="M66.248 16.1696H62.5537V19.815H66.248V16.1696Z" fill="white"></path><path d="M74.8748 7.43991C73.6215 7.50288 72.428 7.99445 71.4939 8.83233H71.4143V4.19006H67.8356V19.8124H71.3269V18.8619H71.4271C72.2312 19.6506 73.5928 20.1464 74.8748 20.2004C78.3738 20.3365 80.9891 17.4592 80.9891 13.8188C80.9891 10.1785 78.4123 7.20869 74.8748 7.43991ZM74.361 17.0738C72.6705 17.0738 71.2987 15.6172 71.2987 13.8188C71.2987 12.0205 72.6834 10.5664 74.3687 10.5664C76.054 10.5664 77.431 12.0231 77.431 13.8188C77.431 15.6146 76.0617 17.0738 74.3687 17.0738H74.361Z" fill="white"></path><path d="M15.7791 8.53182C15.7791 6.06811 14.0372 3.70715 10.1426 3.70715C6.75657 3.70715 4.49067 5.93708 4.49067 9.25886V9.32822H8.14642V9.264C8.14642 8.6911 8.24919 6.95186 10.104 6.95186C11.5658 6.95186 12.0462 7.92809 12.0462 8.67055C12.0462 9.69817 11.6532 10.2351 9.45407 12.316L4.43672 16.7528V19.7663H15.7559V16.3032H9.95503L12.2312 14.3867C14.1888 12.6063 15.7791 10.9467 15.7791 8.53182Z" fill="white"></path><defs><linearGradient id="paint0_linear" x1="-3.21219e-07" y1="12.9782" x2="125.416" y2="12.9782" gradientUnits="userSpaceOnUse"><stop stop-color="#941E94"></stop><stop offset="1" stop-color="#E52E6B"></stop></linearGradient></defs></svg>