<svg xmlns="http://www.w3.org/2000/svg" width="24" height="24" viewBox="0 0 24 24" fill="none" class=""><path fill-rule="evenodd" clip-rule="evenodd" d="M12 7.66685C15.3086 7.66685 15.9997 8.96182 15.9997 9.66644H20C20 7.00663 16.5603 5 12 5C7.43917 5 4 7.00663 4 9.66644H8.00027C8.00027 8.96182 8.69135 7.66685 12 7.66685ZM8.00027 10.0006H4V12.0631H8.00027V10.0006ZM15.9998 10.0006H20V12.0631H15.9998V10.0006ZM12 16.9997C12.9204 16.9997 13.6665 16.2536 13.6665 15.3332C13.6665 14.4128 12.9204 13.6667 12 13.6667C11.0796 13.6667 10.3335 14.4128 10.3335 15.3332C10.3335 16.2536 11.0796 16.9997 12 16.9997ZM12.5422 8.34874C13.1385 8.37907 13.62 8.45869 14.0002 8.56809V11.6671L18.6666 14.3345V19.0004H5.33398V14.3345L10.0004 11.6671V8.56809C10.3812 8.45869 10.8621 8.37961 11.459 8.34874V11.1255H12.5422V8.34874ZM12 18.0001C13.4732 18.0001 14.6669 16.8064 14.6669 15.3327C14.6669 13.8617 13.4732 12.6658 12 12.6658C10.5269 12.6658 9.33317 13.8601 9.33317 15.3327C9.33317 16.8064 10.5269 18.0001 12 18.0001Z" fill="#111"></path></svg>